<svg width="33" height="32" viewBox="0 0 33 32" fill="none" xmlns="http://www.w3.org/2000/svg">
<path d="M24.8017 6.66452C25.0762 7.32855 25.6033 7.85637 26.2669 8.13193L28.5937 9.09581C29.2578 9.37088 29.7854 9.89849 30.0605 10.5626C30.3356 11.2267 30.3356 11.9728 30.0605 12.6369L29.0973 14.9622C28.8221 15.6266 28.8217 16.3736 29.0982 17.0376L30.0597 19.3622C30.196 19.6912 30.2662 20.0437 30.2662 20.3997C30.2664 20.7558 30.1962 21.1084 30.06 21.4373C29.9237 21.7664 29.724 22.0652 29.4722 22.3169C29.2204 22.5686 28.9214 22.7684 28.5925 22.9045L26.2673 23.8677C25.6032 24.1422 25.0754 24.6693 24.7998 25.3329L23.836 27.6598C23.5609 28.324 23.0334 28.8516 22.3693 29.1266C21.7053 29.4017 20.9592 29.4017 20.295 29.1266L17.9698 28.1634C17.3057 27.889 16.5598 27.8896 15.8962 28.165L13.5693 29.1276C12.9056 29.402 12.1601 29.4017 11.4966 29.1269C10.8331 28.852 10.3058 28.325 10.0305 27.6617L9.06639 25.334C8.79183 24.67 8.26482 24.1421 7.60123 23.8665L5.27431 22.9026C4.61054 22.6277 4.08311 22.1004 3.80794 21.4368C3.53278 20.773 3.5324 20.0272 3.8069 19.3632L4.77004 17.038C5.04443 16.3738 5.04387 15.628 4.7685 14.9642L3.80672 12.6355C3.67036 12.3066 3.60015 11.9541 3.6001 11.598C3.60004 11.242 3.67014 10.8894 3.80639 10.5604C3.94264 10.2315 4.14238 9.93257 4.39419 9.68084C4.64599 9.42911 4.94492 9.22947 5.27392 9.09331L7.59916 8.13013C8.26259 7.8558 8.79007 7.32944 9.06583 6.66659L10.0297 4.33959C10.3047 3.67549 10.8323 3.14788 11.4964 2.87281C12.1605 2.59773 12.9066 2.59773 13.5707 2.87281L15.8958 3.836C16.56 4.11039 17.3058 4.10983 17.9696 3.83444L20.2974 2.87431C20.9614 2.59939 21.7073 2.59944 22.3713 2.87447C23.0352 3.14948 23.5628 3.67695 23.8378 4.34085L24.802 6.66855L24.8017 6.66452Z" fill="#FFFBF2" stroke="#FFFBF2" stroke-width="2.66667" stroke-linecap="round" stroke-linejoin="round"/>
<path d="M12.9333 15.9998L15.6 18.6665L21.6 12.6665" stroke="#6D23F9" stroke-width="2.66667" stroke-linecap="round" stroke-linejoin="round"/>
</svg>
