<svg width="92" height="30" viewBox="0 0 92 30" fill="none" xmlns="http://www.w3.org/2000/svg">
<path fill-rule="evenodd" clip-rule="evenodd" d="M8.85767 0.351562C13.7496 0.351562 17.7153 4.31727 17.7153 9.20924C17.7153 14.1012 13.7496 18.0669 8.85767 18.0669C3.96572 18.0669 0 14.1012 0 9.20924C0 4.31727 3.96572 0.351562 8.85767 0.351562ZM8.85767 4.63439C6.2773 4.63439 4.18549 6.72617 4.18549 9.30657C4.18549 11.887 6.2773 13.9788 8.85767 13.9788C11.4381 13.9788 13.5299 11.887 13.5299 9.30657C13.5299 6.72617 11.4381 4.63439 8.85767 4.63439ZM8.85767 25.7565C11.34 25.7565 13.3701 23.8208 13.5209 21.3765C13.5308 21.2155 13.6606 21.0844 13.8219 21.0844L17.4196 21.0845C17.5822 21.0845 17.7139 21.2178 17.7068 21.3801C17.5011 26.0896 13.6179 29.8447 8.85767 29.8447C4.06368 29.8447 0.159952 26.1297 0.00522994 21.377C0.000287051 21.2158 0.131517 21.0844 0.29279 21.0844H3.89348C4.05475 21.0844 4.18455 21.2155 4.19448 21.3765C4.34523 23.8207 6.37539 25.7565 8.85767 25.7565Z" fill="#6200EE"/>
<path fill-rule="evenodd" clip-rule="evenodd" d="M81.5688 0.838248C81.6764 0.838248 81.7635 0.925364 81.7635 1.03292V6.20434L85.2296 2.95124C85.4022 2.78927 85.6276 2.69602 85.8634 2.68814L85.8957 2.68765H90.8233C90.8778 2.68765 90.9297 2.71053 90.9666 2.75063C91.0393 2.82986 91.0341 2.95299 90.9549 3.0257L83.7953 9.60043L91.9429 17.3452C91.9795 17.3817 92.0001 17.4312 92.0001 17.4829C92.0001 17.5904 91.9128 17.6776 91.8054 17.6776H87.1271C86.8651 17.6776 86.6142 17.5719 86.4311 17.3847L81.7635 13.0005V16.5095C81.7635 16.6651 81.6862 16.7324 81.4886 16.801L81.4715 16.8015L77.6754 18.0669C77.5141 18.0669 77.3833 17.9362 77.3833 17.7749V0.546237C77.3833 0.438679 77.4705 0.351562 77.578 0.351562L81.5688 0.838248ZM64.7295 0.351562C69.6215 0.351562 73.5872 4.31727 73.5872 9.20924C73.5872 14.1012 69.6215 18.0669 64.7295 18.0669C59.8376 18.0669 55.8718 14.1012 55.8718 9.20924C55.8718 4.31727 59.8376 0.351562 64.7295 0.351562ZM64.7295 4.63439C62.1491 4.63439 60.0574 6.72617 60.0574 9.30657C60.0574 11.887 62.1491 13.9788 64.7295 13.9788C67.3099 13.9788 69.4017 11.887 69.4017 9.30657C69.4017 6.72617 67.3099 4.63439 64.7295 4.63439ZM28.0335 0.351562C32.9254 0.351562 36.8911 4.31727 36.8911 9.20924C36.8911 14.1012 32.9254 18.0669 28.0335 18.0669C23.1415 18.0669 19.1758 14.1012 19.1758 9.20924C19.1758 4.31727 23.1415 0.351562 28.0335 0.351562ZM28.0335 4.63439C25.453 4.63439 23.3613 6.72617 23.3613 9.30657C23.3613 11.887 25.453 13.9788 28.0335 13.9788C30.6139 13.9788 32.7056 11.887 32.7056 9.30657C32.7056 6.72617 30.6139 4.63439 28.0335 4.63439ZM53.4182 0.351562C53.5617 0.351562 53.6839 0.455616 53.7066 0.597241L54.2719 4.11675C54.2735 4.12697 54.2743 4.13729 54.2743 4.14771C54.2743 4.25517 54.1872 4.34238 54.0796 4.34238H48.1189V16.4122C48.1189 16.5676 47.9973 16.6947 47.844 16.7036L47.8269 16.7042L43.5441 18.0669C43.3828 18.0669 43.2521 17.9361 43.2521 17.7749V4.34238H37.4751C37.4715 4.34238 37.4679 4.34219 37.4643 4.34199L37.4535 4.34112C37.3466 4.32914 37.2697 4.23288 37.2817 4.126L37.6748 0.611063C37.6914 0.463305 37.8163 0.351562 37.965 0.351562H53.4182Z" fill="#6200EE"/>
</svg>
